<?xml version="1.0" standalone="no"?>
<!DOCTYPE svg PUBLIC "-//W3C//DTD SVG 20010904//EN"
 "http://www.w3.org/TR/2001/REC-SVG-20010904/DTD/svg10.dtd">
<svg version="1.0" xmlns="http://www.w3.org/2000/svg"
 width="250.000000pt" height="250.000000pt" viewBox="0 0 250.000000 250.000000"
 preserveAspectRatio="xMidYMid meet">

<g transform="translate(0.000000,250.000000) scale(0.100000,-0.100000)"
fill="#000000" stroke="none">
<path d="M1140 2488 c-192 -14 -398 -87 -572 -201 -110 -72 -272 -230 -339
-332 -251 -379 -287 -831 -98 -1230 144 -305 408 -542 719 -648 258 -88 536
-88 800 -1 590 196 944 813 817 1424 -24 114 -83 286 -109 317 -8 10 -103 13
-427 13 -461 0 -490 -3 -589 -63 -145 -88 -220 -236 -210 -415 9 -151 102
-289 242 -357 64 -32 187 -60 201 -47 3 3 5 26 5 52 l0 47 -52 6 c-198 24
-339 232 -284 421 31 106 92 176 196 225 l55 26 403 3 402 3 21 -48 c11 -26
32 -90 47 -143 24 -88 26 -110 26 -290 0 -182 -2 -202 -27 -295 -57 -204 -159
-376 -310 -522 -307 -297 -718 -402 -1122 -287 -183 52 -360 158 -500 299
-272 274 -383 646 -309 1037 63 334 299 642 609 796 178 88 320 122 515 122
294 0 533 -89 762 -284 67 -57 68 -57 125 -54 l58 3 -79 78 c-89 87 -172 145
-308 217 -203 105 -419 147 -668 128z"/>
<path d="M520 1780 l0 -50 335 0 335 0 0 50 0 50 -335 0 -335 0 0 -50z"/>
<path d="M1560 1437 c-3 -3 -4 -26 -2 -50 l4 -45 46 -7 c26 -3 70 -17 99 -30
265 -120 264 -488 -2 -612 l-60 -28 -450 -5 -450 -5 0 -45 0 -45 465 0 c459 0
466 0 520 22 111 46 208 143 252 253 18 45 22 75 22 160 0 85 -4 115 -22 160
-44 111 -144 210 -251 250 -53 20 -161 37 -171 27z"/>
<path d="M524 1291 c-2 -2 -4 -168 -4 -368 l0 -363 50 0 50 0 0 315 0 315 205
0 205 0 0 50 0 49 -251 3 c-138 2 -253 1 -255 -1z"/>
</g>
</svg>
